<svg width="30" height="30" viewBox="0 0 30 30" fill="none" xmlns="http://www.w3.org/2000/svg">
<path d="M13.2639 16.7362L19.4444 10.5556C20.4861 9.51398 22.2222 11.2501 21.1806 12.2918L14.0278 19.4445C13.6111 19.8612 12.9167 19.8612 12.4306 19.4445L8.81945 15.8334C7.77778 14.7918 9.44445 13.0556 10.5556 14.0973L13.1944 16.7362H13.2639Z" fill="#FF208B"/>
<path d="M15 0C23.2639 0 30 6.73611 30 15C30 23.2639 23.2639 30 15 30C6.73611 30 0 23.2639 0 15C0 6.73611 6.73611 0 15 0ZM15 2.43056C8.05556 2.43056 2.43056 8.05556 2.43056 15C2.43056 21.9444 8.05556 27.5694 15 27.5694C21.9444 27.5694 27.5694 21.9444 27.5694 15C27.5694 8.05556 21.9444 2.43056 15 2.43056Z" fill="#FF208B"/>
</svg>
